# Blender v2.78 (sub 0) OBJ File: ''
# www.blender.org
o Cube.001
v -0.580779 0.017808 1.151195
v -1.094994 0.011205 0.951330
v -1.198637 -0.142042 0.456286
v -1.219336 1.357036 0.643197
v -1.062681 1.250755 1.102778
v -0.653191 1.223752 1.324698
v 0.765551 1.422217 0.898895
v 0.401099 1.108516 1.510638
v 0.893415 0.753351 1.423311
v -1.324494 0.959796 1.214894
v -1.762346 0.992311 -0.702959
v -1.398929 1.320841 -0.720032
v -0.724768 1.256263 -1.484756
v -0.364364 0.015500 -0.705229
v -0.735347 -0.038494 -0.839018
v -1.106182 0.150326 -1.018790
v -0.402594 -0.143871 -0.599931
v -0.519131 -0.198238 -0.040573
v -1.137539 -0.178213 -0.121642
v 0.505152 -0.208308 -0.660805
v 0.437517 -0.236310 -0.114243
v -0.058695 -0.236901 -0.063425
v 0.340548 -0.222344 0.529987
v 0.200680 -0.065671 1.187889
v -0.197469 -0.038695 1.225803
v -0.240916 1.436185 0.627635
v -0.387754 1.228184 1.726817
v -0.108185 1.178733 1.792861
v 0.758658 1.409119 -0.719848
v 0.020092 1.352109 -0.997497
v 0.003201 1.427370 -0.256913
v -0.587084 1.365853 -0.892592
v -1.219999 1.379048 0.006615
v 1.304761 0.265568 0.743638
v 1.224555 0.706535 1.005173
v 1.112362 0.553844 1.378402
v 1.280886 0.203184 -0.859243
v 1.224201 0.676013 -0.692910
v 1.132276 0.768274 0.165849
v 1.380637 0.973011 -0.710218
v 1.189048 1.292671 -0.597654
v 0.932525 1.322363 0.044712
v -0.749600 0.266441 1.343753
v -1.086476 0.478733 1.286410
v -1.690966 0.527814 0.850403
v 0.624123 0.515737 1.445501
v 0.217171 0.528445 1.362268
v -0.178026 0.232482 1.501837
v 0.481283 0.767215 1.407270
v -1.802803 0.395419 -0.727797
v -1.228633 0.557364 -1.136738
v -1.689389 0.538417 0.455841
v -1.691787 0.505624 -0.067214
v -1.591349 -0.077996 -0.258770
v -1.477225 1.092905 0.743595
v -0.306104 0.992585 -1.719957
v -0.818364 0.573364 -1.405686
v 0.759131 0.926123 -1.531769
v 0.513411 0.525071 -1.499686
v -0.242730 0.412625 -1.539607
v 0.426043 -0.067054 -1.029989
v 0.024359 0.003092 -0.786705
v -0.223421 0.136751 -1.237082
v -0.673826 -0.150523 0.589143
v -0.149180 -0.198546 0.592780
v -0.720827 1.405508 0.695000
v -0.646249 1.419389 -0.014459
v 1.073024 1.143698 0.977784
v 1.008006 1.144307 0.194329
v -0.987415 0.819430 1.389159
v -0.109776 0.727865 1.599010
v -1.017433 1.001879 -1.434625
v -1.525961 1.144322 0.042147
v -0.793954 0.224864 -1.126189
v -0.905270 -0.143398 -0.540291
v 0.129887 -0.112668 -0.535643
v 0.999116 -0.114689 -0.641049
v 1.002501 -0.081792 -0.151179
v 0.965960 -0.050654 0.467074
v 0.693408 -0.000228 1.063578
v 0.299875 1.446691 0.860509
v 0.568595 1.428149 -0.293963
v 0.727548 1.197997 -1.302886
v 0.062352 1.202625 -1.588250
v -0.217898 1.222978 -1.804346
v 0.971681 0.259296 1.309765
v 1.225993 0.316896 -0.067067
v 1.038366 0.250920 -1.290740
v 1.157455 0.614050 -1.224868
v 1.342919 0.883381 -1.184997
v 1.260847 1.159558 -1.026725
v -1.614247 0.186084 0.767526
v 0.451368 0.229241 1.396273
v -1.389343 -0.002892 -0.811267
v -1.593286 0.109318 0.484459
v 0.110320 0.915054 -1.835413
v 0.469806 0.190499 -1.201566
v 0.854024 -0.040896 -1.081244
vt 0.0583 0.5699
vt 0.0826 0.5067
vt 0.1529 0.4987
vt 0.2063 0.3782
vt 0.1556 0.4023
vt 0.0998 0.3877
vt 0.8545 0.3493
vt 0.7950 0.2490
vt 0.8707 0.1749
vt 0.9441 0.6946
vt 0.9057 0.6826
vt 0.9167 0.6045
vt 0.3368 0.0820
vt 0.3692 0.0008
vt 0.4892 0.0000
vt 0.5127 0.3106
vt 0.4816 0.3231
vt 0.4473 0.2762
vt 0.2768 0.5835
vt 0.2154 0.5785
vt 0.2237 0.5024
vt 0.2885 0.6956
vt 0.2265 0.6947
vt 0.2208 0.6358
vt 0.1496 0.6887
vt 0.0600 0.6690
vt 0.0537 0.6200
vt 0.1155 0.2999
vt 0.0420 0.4025
vt 0.0114 0.3834
vt 0.1339 0.0947
vt 0.2261 0.1276
vt 0.1657 0.1994
vt 0.2737 0.1876
vt 0.3356 0.2678
vt 0.2584 0.3215
vt 0.4229 0.6541
vt 0.5205 0.6847
vt 0.4775 0.7263
vt 0.4227 0.4592
vt 0.5294 0.4791
vt 0.5396 0.5807
vt 0.7441 0.8145
vt 0.6723 0.7875
vt 0.6838 0.7120
vt 0.0163 0.5363
vt 0.0066 0.4823
vt 0.0544 0.4025
vt 0.8552 0.1259
vt 0.8187 0.1375
vt 0.7861 0.0702
vt 0.8291 0.1826
vt 0.7208 0.2512
vt 0.6940 0.2682
vt 0.3485 0.2255
vt 0.4310 0.1768
vt 0.8217 0.4944
vt 0.7589 0.4881
vt 0.7478 0.3611
vt 0.8534 0.6288
vt 0.8441 0.7006
vt 0.7667 0.7072
vt 0.5550 0.0575
vt 0.4911 0.1663
vt 0.6612 0.0716
vt 0.6424 0.1700
vt 0.5654 0.2000
vt 0.6197 0.3211
vt 0.5600 0.3103
vt 0.5564 0.2715
vt 0.1376 0.5634
vt 0.1407 0.6292
vt 0.1550 0.3441
vt 0.2062 0.2743
vt 0.8962 0.2829
vt 0.9071 0.1336
vt 0.6226 0.5818
vt 0.6173 0.6784
vt 0.6629 0.5621
vt 0.6723 0.6611
vt 0.9492 0.5877
vt 0.8696 0.4909
vt 0.7916 0.8662
vt 0.7441 0.8212
vt 0.7521 0.7072
vt 0.9999 0.7068
vt 0.4607 0.0635
vt 0.7665 0.6400
vt 0.6723 0.5967
vt 0.6778 0.4598
vt 0.6749 0.6876
vt 0.4857 0.2550
vt 0.3368 0.8336
vt 0.3369 0.7859
vt 0.3845 0.7263
vt 0.5062 0.3510
vt 0.4481 0.3543
vt 0.5595 0.3420
vt 0.2665 0.6460
vt 0.6100 0.3611
vt 0.2786 0.7492
vt 0.3209 0.6737
vt 0.2184 0.7526
vt 0.1432 0.7525
vt 0.0693 0.7227
vt 0.8083 0.3611
vt 0.1162 0.1497
vt 0.0460 0.2771
vt 0.0000 0.2413
vt 0.0562 0.1459
vt 0.1879 0.0352
vt 0.0856 0.0653
vt 0.2730 0.0641
vt 0.3165 0.0684
vt 0.3368 0.1404
vt 0.3401 0.6102
vt 0.4046 0.7132
vt 0.3400 0.5363
vt 0.4398 0.5539
vt 0.4295 0.4003
vt 0.3368 0.4768
vt 0.5177 0.4127
vt 0.6042 0.4822
vt 0.5865 0.4235
vt 0.6465 0.4411
vt 0.6710 0.4914
vt 0.0909 0.4319
vt 0.0000 0.6084
vt 0.6941 0.1437
vt 0.0123 0.6830
vt 0.0198 0.7426
vt 0.8571 0.0701
vt 0.7587 0.1680
vt 0.4081 0.3181
vt 0.2322 0.4405
vt 0.2912 0.4545
vt 0.2701 0.5239
vt 0.6853 0.3887
vt 0.1301 0.4362
vt 0.8347 0.4016
vt 0.5639 0.0001
vt 0.5821 0.0074
vt 0.6089 0.0722
vt 0.2079 0.0000
vt 0.2933 0.0252
vt 0.5795 0.3653
vt 0.4772 0.3611
vt 0.6283 0.2559
vt 0.6940 0.1502
vt 0.6938 0.2371
vt 0.6686 0.3119
vt 0.7317 0.7072
vt 0.9344 0.1876
vt 0.9396 0.5063
vt 0.7914 0.7117
vt 1.0000 0.6065
vt 0.3877 0.8015
vt 0.3247 0.7229
vt 0.1163 0.0148
vt 0.3368 0.6749
vt 0.3532 0.4197
vt 0.7365 0.0923
vt 0.9139 0.0770
vt 0.8671 0.4173
vt 0.6396 0.3929
vn -0.2335 -0.8198 0.5228
vn -0.3418 -0.6257 0.7012
vn -0.2767 -0.9378 0.2099
vn -0.4240 0.8907 0.1639
vn -0.3392 0.8184 0.4639
vn -0.4606 0.7729 0.4365
vn 0.3785 0.8849 0.2715
vn 0.4712 0.5797 0.6648
vn 0.3206 0.1589 0.9338
vn -0.6469 0.2888 0.7058
vn -0.9007 0.3720 -0.2243
vn -0.4584 0.8627 -0.2136
vn -0.3010 0.8200 -0.4868
vn 0.0107 -0.8069 -0.5905
vn 0.2300 -0.6944 -0.6818
vn -0.2313 -0.5951 -0.7697
vn 0.0168 -0.8465 -0.5321
vn -0.0404 -0.9986 -0.0330
vn -0.1221 -0.9917 -0.0412
vn -0.0122 -0.9719 -0.2350
vn 0.1223 -0.9924 0.0150
vn -0.0710 -0.9930 -0.0940
vn 0.1222 -0.9814 0.1481
vn 0.0805 -0.8494 0.5216
vn -0.0862 -0.8494 0.5207
vn -0.0467 0.9964 0.0705
vn -0.2177 0.4944 0.8415
vn -0.0864 0.1466 0.9854
vn 0.1783 0.9707 -0.1613
vn 0.0073 0.9872 -0.1591
vn -0.0273 0.9981 -0.0548
vn -0.0444 0.9916 -0.1219
vn -0.3447 0.9385 0.0225
vn 0.9216 -0.3604 0.1438
vn 0.9593 0.2226 0.1738
vn 0.6485 -0.0321 0.7605
vn 0.9199 -0.2912 -0.2625
vn 0.9855 -0.1624 0.0501
vn 0.9635 0.2672 -0.0184
vn 0.9934 0.0353 0.1095
vn 0.6381 0.7690 0.0386
vn 0.5967 0.7991 0.0731
vn -0.3263 -0.4738 0.8180
vn -0.4341 -0.3292 0.8386
vn -0.9136 0.0898 0.3966
vn 0.1268 -0.0326 0.9914
vn -0.1891 -0.1869 0.9640
vn -0.0736 -0.1842 0.9801
vn 0.1147 -0.2422 0.9634
vn -0.8990 -0.3405 -0.2756
vn -0.4795 -0.3319 -0.8123
vn -0.9937 0.1071 0.0343
vn -0.9992 0.0001 0.0399
vn -0.7394 -0.6548 -0.1565
vn -0.8247 0.5050 0.2546
vn -0.2181 -0.1818 -0.9588
vn -0.4323 -0.2968 -0.8515
vn 0.4269 0.1494 -0.8919
vn 0.2259 -0.4304 -0.8739
vn -0.1170 -0.5871 -0.8010
vn -0.0769 -0.8426 -0.5330
vn -0.2119 -0.9383 -0.2733
vn -0.1316 -0.8494 -0.5110
vn -0.0855 -0.9798 0.1806
vn -0.0559 -0.9878 0.1455
vn -0.0936 0.9867 0.1331
vn -0.0434 0.9988 -0.0211
vn 0.7524 0.5710 0.3283
vn 0.9405 0.3383 0.0304
vn -0.3647 -0.0202 0.9309
vn -0.0063 -0.5229 0.8524
vn -0.5491 0.0864 -0.8313
vn -0.8189 0.5649 0.1013
vn -0.1091 -0.7750 -0.6225
vn -0.0435 -0.9705 -0.2373
vn -0.2164 -0.9160 -0.3378
vn 0.4830 -0.8673 -0.1207
vn 0.5862 -0.8084 0.0528
vn 0.4533 -0.8785 0.1509
vn 0.3021 -0.8881 0.3465
vn -0.0117 0.9902 0.1393
vn 0.1047 0.9945 -0.0060
vn 0.2874 0.7995 -0.5274
vn 0.2265 0.7973 -0.5594
vn 0.1669 0.3983 -0.9020
vn 0.4500 -0.5911 0.6694
vn 0.9912 -0.1319 -0.0064
vn 0.4217 -0.2477 -0.8723
vn 0.7199 -0.3290 -0.6111
vn 0.8733 -0.0270 -0.4864
vn 0.6960 0.6588 -0.2857
vn -0.7358 -0.5525 0.3915
vn 0.1493 -0.4769 0.8662
vn -0.4672 -0.7146 -0.5206
vn -0.7914 -0.5919 0.1529
vn 0.1508 0.0222 -0.9883
vn 0.0720 -0.5648 -0.8221
vn 0.2467 -0.8123 -0.5285
s 1
f 1/1/1 2/2/2 3/3/3
f 4/4/4 5/5/5 6/6/6
f 7/7/7 8/8/8 9/9/9
f 6/10/6 5/11/5 10/12/10
f 11/13/11 12/14/12 13/15/13
f 14/16/14 15/17/15 16/18/16
f 17/19/17 18/20/18 19/21/19
f 20/22/20 21/23/21 22/24/22
f 23/25/23 24/26/24 25/27/25
f 26/28/26 27/29/27 28/30/28
f 29/31/29 30/32/30 31/33/31
f 32/34/32 12/35/12 33/36/33
f 34/37/34 35/38/35 36/39/36
f 37/40/37 38/41/38 39/42/39
f 40/43/40 41/44/41 42/45/42
f 43/46/43 44/47/44 45/48/45
f 46/49/46 47/50/47 48/51/48
f 49/52/49 28/53/28 27/54/27
f 50/55/50 51/56/51 16/18/16
f 52/57/52 53/58/53 54/59/54
f 55/60/55 4/61/4 33/62/33
f 56/63/56 57/64/57 51/56/51
f 58/65/58 59/66/59 60/67/60
f 61/68/61 62/69/62 63/70/63
f 64/71/64 3/3/3 19/21/19
f 22/24/22 65/72/65 64/71/64
f 25/27/25 1/1/1 64/71/64
f 66/73/66 6/6/6 27/29/27
f 31/33/31 67/74/67 66/73/66
f 67/74/67 33/36/33 4/4/4
f 68/75/68 9/9/9 36/76/36
f 69/77/69 68/78/68 35/38/35
f 42/79/42 7/80/7 68/78/68
f 70/81/70 10/12/10 45/82/45
f 47/83/47 71/84/71 70/85/70
f 27/86/27 6/10/6 70/81/70
f 50/55/50 11/13/11 72/87/72
f 73/88/73 11/89/11 50/90/50
f 33/62/33 12/91/12 11/89/11
f 57/64/57 74/92/74 16/18/16
f 63/70/63 74/92/74 57/64/57
f 62/93/62 14/94/14 74/95/74
f 14/16/14 17/96/17 75/97/75
f 76/98/76 17/96/17 14/16/14
f 76/99/76 22/24/22 18/20/18
f 61/68/61 20/100/20 76/98/76
f 77/101/77 20/22/20 61/102/61
f 77/101/77 78/103/78 21/23/21
f 21/23/21 23/25/23 65/72/65
f 78/103/78 79/104/79 23/25/23
f 79/104/79 80/105/80 24/26/24
f 7/7/7 81/106/81 28/53/28
f 82/107/82 81/108/81 7/109/7
f 82/107/82 31/33/31 26/28/26
f 29/31/29 82/107/82 42/110/42
f 83/111/83 29/31/29 41/112/41
f 84/113/84 30/32/30 29/31/29
f 30/32/30 32/34/32 67/74/67
f 85/114/85 32/34/32 30/32/30
f 85/114/85 13/115/13 12/35/12
f 79/116/79 34/37/34 86/117/86
f 78/118/78 87/119/87 34/37/34
f 87/119/87 39/42/39 35/38/35
f 37/40/37 87/119/87 78/118/78
f 88/120/88 37/40/37 77/121/77
f 88/120/88 89/122/89 38/41/38
f 38/41/38 40/123/40 69/77/69
f 89/122/89 90/124/90 40/123/40
f 90/124/90 91/125/91 41/126/41
f 1/1/1 43/46/43 92/127/92
f 25/27/25 48/128/48 43/46/43
f 48/51/48 47/50/47 44/129/44
f 93/130/93 48/128/48 25/27/25
f 86/131/86 93/130/93 24/26/24
f 36/76/36 46/49/46 93/132/93
f 46/49/46 49/52/49 71/133/71
f 36/76/36 9/9/9 49/52/49
f 9/9/9 8/8/8 28/53/28
f 94/134/94 16/18/16 15/17/15
f 54/135/54 94/136/94 75/137/75
f 53/58/53 50/90/50 94/138/94
f 3/3/3 95/139/95 54/135/54
f 2/2/2 92/127/92 95/139/95
f 45/82/45 52/57/52 95/140/95
f 55/60/55 73/88/73 53/58/53
f 10/12/10 55/60/55 52/57/52
f 10/12/10 5/11/5 4/61/4
f 85/141/85 56/63/56 72/87/72
f 84/142/84 96/143/96 56/63/56
f 96/143/96 60/67/60 57/64/57
f 83/111/83 58/144/58 96/145/96
f 91/125/91 90/124/90 58/146/58
f 90/124/90 89/122/89 59/147/59
f 59/66/59 97/148/97 63/70/63
f 89/149/89 88/150/88 97/148/97
f 88/150/88 98/151/98 61/68/61
f 64/71/64 1/1/1 3/3/3
f 66/73/66 4/4/4 6/6/6
f 68/75/68 7/7/7 9/9/9
f 70/81/70 6/10/6 10/12/10
f 72/87/72 11/13/11 13/15/13
f 74/92/74 14/16/14 16/18/16
f 75/137/75 17/19/17 19/21/19
f 76/99/76 20/22/20 22/24/22
f 65/72/65 23/25/23 25/27/25
f 81/108/81 26/28/26 28/30/28
f 82/107/82 29/31/29 31/33/31
f 67/74/67 32/34/32 33/36/33
f 86/117/86 34/37/34 36/39/36
f 87/119/87 37/40/37 39/42/39
f 69/152/69 40/43/40 42/45/42
f 92/127/92 43/46/43 45/48/45
f 93/132/93 46/49/46 48/51/48
f 71/133/71 49/52/49 27/54/27
f 94/134/94 50/55/50 16/18/16
f 95/140/95 52/57/52 54/59/54
f 73/88/73 55/60/55 33/62/33
f 72/87/72 56/63/56 51/56/51
f 96/143/96 58/65/58 60/67/60
f 97/148/97 61/68/61 63/70/63
f 18/20/18 64/71/64 19/21/19
f 18/20/18 22/24/22 64/71/64
f 65/72/65 25/27/25 64/71/64
f 26/28/26 66/73/66 27/29/27
f 26/28/26 31/33/31 66/73/66
f 66/73/66 67/74/67 4/4/4
f 35/153/35 68/75/68 36/76/36
f 39/42/39 69/77/69 35/38/35
f 69/77/69 42/79/42 68/78/68
f 44/154/44 70/81/70 45/82/45
f 44/155/44 47/83/47 70/85/70
f 71/156/71 27/86/27 70/81/70
f 51/56/51 50/55/50 72/87/72
f 53/58/53 73/88/73 50/90/50
f 73/88/73 33/62/33 11/89/11
f 51/56/51 57/64/57 16/18/16
f 60/67/60 63/70/63 57/64/57
f 63/157/63 62/93/62 74/95/74
f 15/17/15 14/16/14 75/97/75
f 62/69/62 76/98/76 14/16/14
f 17/19/17 76/99/76 18/20/18
f 62/69/62 61/68/61 76/98/76
f 98/158/98 77/101/77 61/102/61
f 20/22/20 77/101/77 21/23/21
f 22/24/22 21/23/21 65/72/65
f 21/23/21 78/103/78 23/25/23
f 23/25/23 79/104/79 24/26/24
f 8/8/8 7/7/7 28/53/28
f 42/110/42 82/107/82 7/109/7
f 81/108/81 82/107/82 26/28/26
f 41/112/41 29/31/29 42/110/42
f 91/159/91 83/111/83 41/112/41
f 83/111/83 84/113/84 29/31/29
f 31/33/31 30/32/30 67/74/67
f 84/113/84 85/114/85 30/32/30
f 32/34/32 85/114/85 12/35/12
f 80/160/80 79/116/79 86/117/86
f 79/116/79 78/118/78 34/37/34
f 34/37/34 87/119/87 35/38/35
f 77/121/77 37/40/37 78/118/78
f 98/161/98 88/120/88 77/121/77
f 37/40/37 88/120/88 38/41/38
f 39/42/39 38/41/38 69/77/69
f 38/41/38 89/122/89 40/123/40
f 40/123/40 90/124/90 41/126/41
f 2/2/2 1/1/1 92/127/92
f 1/1/1 25/27/25 43/46/43
f 43/162/43 48/51/48 44/129/44
f 24/26/24 93/130/93 25/27/25
f 80/105/80 86/131/86 24/26/24
f 86/163/86 36/76/36 93/132/93
f 47/50/47 46/49/46 71/133/71
f 46/49/46 36/76/36 49/52/49
f 49/52/49 9/9/9 28/53/28
f 75/97/75 94/134/94 15/17/15
f 19/21/19 54/135/54 75/137/75
f 54/59/54 53/58/53 94/138/94
f 19/21/19 3/3/3 54/135/54
f 3/3/3 2/2/2 95/139/95
f 92/164/92 45/82/45 95/140/95
f 52/57/52 55/60/55 53/58/53
f 45/82/45 10/12/10 52/57/52
f 55/60/55 10/12/10 4/61/4
f 13/15/13 85/141/85 72/87/72
f 85/141/85 84/142/84 56/63/56
f 56/63/56 96/143/96 57/64/57
f 84/113/84 83/111/83 96/145/96
f 83/165/83 91/125/91 58/146/58
f 58/146/58 90/124/90 59/147/59
f 60/67/60 59/66/59 63/70/63
f 59/66/59 89/149/89 97/148/97
f 97/148/97 88/150/88 61/68/61
